<?xml version="1.0" encoding="utf-8"?>
<!-- Generator: Adobe Illustrator 24.1.1, SVG Export Plug-In . SVG Version: 6.00 Build 0)  -->
<svg version="1.1" id="Layer_1" xmlns="http://www.w3.org/2000/svg" xmlns:xlink="http://www.w3.org/1999/xlink" x="0px" y="0px"
	 viewBox="0 0 512 512" style="enable-background:new 0 0 512 512;" xml:space="preserve">
<style type="text/css">
	.st0{fill-rule:evenodd;clip-rule:evenodd;}
</style>
<g>
	<path class="st0" d="M80,0C44.6,0,16,28.6,16,64v384c0,35.4,28.6,64,64,64h352c35.4,0,64-28.6,64-64V64c0-35.4-28.6-64-64-64H80z
		 M240,64c-17.7,0-32,14.3-32,32v96c0,17.7,14.3,32,32,32h32c17.7,0,32-14.3,32-32V96c0-17.7-14.3-32-32-32H240z M80,96
		c0-17.7,14.3-32,32-32h32c17.7,0,32,14.3,32,32v224c0,17.7-14.3,32-32,32h-32c-17.7,0-32-14.3-32-32V96z M368,64
		c-17.7,0-32,14.3-32,32v320c0,17.7,14.3,32,32,32h32c17.7,0,32-14.3,32-32V96c0-17.7-14.3-32-32-32H368z"/>
</g>
</svg>
